<?xml version="1.0" encoding="UTF-8" standalone="no"?>
<svg
   xmlns:dc="http://purl.org/dc/elements/1.1/"
   xmlns:cc="http://creativecommons.org/ns#"
   xmlns:rdf="http://www.w3.org/1999/02/22-rdf-syntax-ns#"
   xmlns:svg="http://www.w3.org/2000/svg"
   xmlns="http://www.w3.org/2000/svg"
   xmlns:sodipodi="http://sodipodi.sourceforge.net/DTD/sodipodi-0.dtd"
   xmlns:inkscape="http://www.inkscape.org/namespaces/inkscape"
   sodipodi:docname="Greg the stop sign.svg"
   inkscape:version="1.0 (4035a4fb49, 2020-05-01)"
   id="svg8"
   version="1.1"
   viewBox="0 0 210 297"
   height="297mm"
   width="210mm">
  <title
     id="title918">Greg the stop sign</title>
  <defs
     id="defs2" />
  <sodipodi:namedview
     inkscape:window-maximized="1"
     inkscape:window-y="-8"
     inkscape:window-x="1912"
     inkscape:window-height="1027"
     inkscape:window-width="1920"
     showgrid="false"
     inkscape:document-rotation="0"
     inkscape:current-layer="layer1"
     inkscape:document-units="mm"
     inkscape:cy="1004.3165"
     inkscape:cx="1045.892"
     inkscape:zoom="0.24101895"
     inkscape:pageshadow="2"
     inkscape:pageopacity="0.0"
     borderopacity="1.0"
     bordercolor="#666666"
     pagecolor="#ffffff"
     id="base" />
  <metadata
     id="metadata5">
    <rdf:RDF>
      <cc:Work
         rdf:about="">
        <dc:format>image/svg+xml</dc:format>
        <dc:type
           rdf:resource="http://purl.org/dc/dcmitype/StillImage" />
        <dc:title>Greg the stop sign</dc:title>
      </cc:Work>
    </rdf:RDF>
  </metadata>
  <g
     id="layer1"
     inkscape:groupmode="layer"
     inkscape:label="Layer 1">
    <path
       inkscape:transform-center-y="-1.3570144e-05"
       inkscape:transform-center-x="-2.3678474e-06"
       d="M 600.00001,423.03553 425.13278,599.1313 176.96447,600.00001 0.86870164,425.13278 -5.5797416e-6,176.96447 174.86722,0.86870164 423.03553,-5.5797416e-6 599.1313,174.86722 Z"
       inkscape:randomized="0"
       inkscape:rounded="0"
       inkscape:flatsided="true"
       sodipodi:arg2="0.7818977"
       sodipodi:arg1="0.38919862"
       sodipodi:r2="290.40768"
       sodipodi:r1="324.24951"
       sodipodi:cy="300.00001"
       sodipodi:cx="300"
       sodipodi:sides="8"
       id="path938"
       style="fill:#ff0000;fill-opacity:1;stroke:none;stroke-width:0.0583633;stroke-miterlimit:4;stroke-dasharray:0.0583633, 0.0583633;stroke-dashoffset:0"
       sodipodi:type="star" />
    <g
       transform="matrix(1.1851117,0,0,1.1851106,268.31017,223.67008)"
       style="font-style:normal;font-weight:normal;font-size:156.188px;line-height:1.25;font-family:sans-serif;letter-spacing:0px;word-spacing:0px;fill:#000000;fill-opacity:1;stroke:none;stroke-width:3.90471"
       id="text907"
       aria-label="GREG">
      <path
         id="path909"
         style="stroke-width:3.90471"
         d="M -103.06083,105.01783 V 74.436098 h -25.16701 v -12.65977 h 40.419748 v 48.885012 q -8.92285,6.32989 -19.676028,9.60923 -10.75318,3.20307 -22.95537,3.20307 -26.69228,0 -41.79249,-15.55779 -15.02394,-15.634053 -15.02394,-43.470293 0,-27.912505 15.02394,-43.470294 15.10021,-15.6340535 41.79249,-15.6340535 11.1345,0 21.12504,2.7454923 10.066807,2.7454922 18.532074,8.0839492 v 16.39669 q -8.541531,-7.245049 -18.150754,-10.905705 -9.60922,-3.660657 -20.20987,-3.660657 -20.89625,0 -31.42064,11.668342 -10.44812,11.668342 -10.44812,34.776236 0,23.031629 10.44812,34.699971 10.52439,11.668342 31.42064,11.668342 8.16021,0 14.56636,-1.37275 6.40615,-1.44901 11.51581,-4.42329 z" />
      <path
         id="path911"
         style="stroke-width:3.90471"
         d="m -5.5958535,67.877422 q 4.95713881,1.677801 9.6092229,7.168785 4.7283478,5.490985 9.4566956,15.100208 L 29.104118,121.26199 H 12.554901 L -2.0114608,92.053006 Q -7.6549727,80.613455 -12.99343,76.876535 q -5.262193,-3.73692 -14.413834,-3.73692 H -44.185272 V 121.26199 H -59.590534 V 7.4003287 h 34.776235 q 19.5235002,0 29.1327231,8.1602133 9.6092229,8.160213 9.6092229,24.633166 0,10.753178 -5.0334025,17.8457 -4.9571388,7.092522 -14.490098,9.838014 z M -44.185272,20.060099 v 40.419747 h 19.370973 q 11.134496,0 16.778008,-5.109667 5.7197755,-5.185929 5.7197755,-15.176471 0,-9.990541 -5.7197755,-15.023943 -5.643512,-5.109666 -16.778008,-5.109666 z" />
      <path
         id="path913"
         style="stroke-width:3.90471"
         d="m 49.00893,7.4003287 h 71.99291 V 20.365153 H 64.414192 V 54.073697 H 118.63766 V 67.038521 H 64.414192 v 41.258649 h 57.960388 v 12.96482 H 49.00893 Z" />
      <path
         id="path915"
         style="stroke-width:3.90471"
         d="M 225.48309,105.01783 V 74.436098 h -25.16701 v -12.65977 h 40.41974 v 48.885012 q -8.92285,6.32989 -19.67603,9.60923 -10.75317,3.20307 -22.95536,3.20307 -26.69229,0 -41.79249,-15.55779 -15.02395,-15.634053 -15.02395,-43.470293 0,-27.912505 15.02395,-43.470294 15.1002,-15.6340535 41.79249,-15.6340535 11.1345,0 21.12504,2.7454923 10.0668,2.7454922 18.53207,8.0839492 v 16.39669 q -8.54153,-7.245049 -18.15076,-10.905705 -9.60922,-3.660657 -20.20987,-3.660657 -20.89625,0 -31.42063,11.668342 -10.44813,11.668342 -10.44813,34.776236 0,23.031629 10.44813,34.699971 10.52438,11.668342 31.42063,11.668342 8.16021,0 14.56636,-1.37275 6.40615,-1.44901 11.51582,-4.42329 z" />
    </g>
    <path
       transform="scale(0.26458333)"
       d="M 1598.875 0 L 660.91602 3.2832031 L 0 668.8418 L 3.2832031 1606.8008 L 668.8418 2267.7168 L 1606.8008 2264.4336 L 2267.7168 1598.875 L 2264.4336 660.91602 L 1598.875 0 z M 1560.123 94.488281 L 2170.2188 700.32812 L 2173.2285 1560.123 L 1567.3887 2170.2188 L 707.59375 2173.2285 L 97.498047 1567.3887 L 94.488281 707.59375 L 700.32812 97.498047 L 1560.123 94.488281 z "
       inkscape:transform-center-y="-1.3570144e-05"
       inkscape:transform-center-x="-2.3678474e-06"
       style="fill:#000000;fill-opacity:1;stroke:none;stroke-width:0.220586;stroke-miterlimit:4;stroke-dasharray:0.220586, 0.220586;stroke-dashoffset:0"
       id="path938-3" />
  </g>
</svg>
