mtllib OBJ_Greg the stop sign (90x90).mtl
usemtl mtl1
v 4423.730001472938 -3309.641470389638 0
v 4305.971471862576 -3427.4 0
v 4305.971471862576 -3427.4 10
vn -1177.5852961036207 1177.5852961036162 0
f 1//1 2//1 3//1
v 4423.730001472938 -3309.641470389638 10
f 3//1 4//1 1//1
v 4188.358528137424 -3427.4000000000005 5
vn -4.547473508864641e-12 1176.1294372515204 0
f 5//2 3//2 2//2
v 4070.6 -3309.6414718625756 0
v 4070.6 -3309.6414718625756 10
vn 1177.5852813742495 1177.585281374245 0
f 5//3 6//3 7//3
v 4070.6 -3192.0280281374244 0
v 4070.6 -3192.0280281374244 10
vn 1176.1344372515123 0 0
f 6//4 8//4 9//4
f 9//4 7//4 6//4
v 4188.358728137424 -3074.2693 0
v 4188.358728137424 -3074.2693 10
vn 1177.5872813742444 -1177.5872813742399 0
f 8//5 10//5 11//5
f 11//5 9//5 8//5
v 4305.9719718625765 -3074.2693000000004 5
vn -4.547473508864641e-12 -1176.1324372515264 0
f 12//6 11//6 10//6
v 4423.730698527059 -3192.028026664482 0
v 4423.730698527059 -3192.028026664482 10
vn -1177.587266644814 -1177.587266644823 0
f 12//7 13//7 14//7
vn -1176.1344372515623 0.006970541207920178 0
f 13//8 1//8 4//8
f 4//8 14//8 13//8
v 4423.730001472938 -3309.6414718625756 0
vn 0 0 -41584.06921461974
f 6//9 15//9 2//9
v 4423.730001472938 -3309.6414718625756 10
f 7//9 16//9 3//9
vn -588.7926406871225 -1176.8573593128826 -13849.927142983746
f 2//10 5//10 6//10
vn 588.7926406871225 1176.8573593128826 -13849.927142983746
f 3//11 5//11 7//11
v 4070.6 -3309.641470389638 0
vn 0 0 -0.000520138451015956
f 17//12 1//12 15//12
v 4070.6 -3309.641470389638 10
f 18//12 4//12 16//12
f 15//12 6//12 17//12
f 16//12 7//12 18//12
v 4423.730698527059 -3192.0280281374244 0
vn 0 0 -41532.91701869611
f 8//13 19//13 1//13
v 4423.730698527059 -3192.0280281374244 10
f 9//13 20//13 4//13
vn 0 0 -41532.83503576153
f 1//14 17//14 8//14
f 4//14 18//14 9//14
v 4070.6 -3192.028026664482 0
vn 0 0 -0.0005201412441709146
f 21//15 13//15 19//15
v 4070.6 -3192.028026664482 10
f 22//15 14//15 20//15
f 19//15 8//15 21//15
f 20//15 9//15 22//15
vn 588.7936333224093 1176.8598519481748 -13849.98581995323
f 10//16 12//16 13//16
vn -588.7936333224093 -1176.8598519481748 -13849.98581995323
f 11//17 12//17 14//17
vn 0 0 -41584.22140468548
f 13//18 21//18 10//18
f 14//18 22//18 11//18