M48
METRIC,LZ,000.000
;FILE_FORMAT=3:3
;TYPE=PLATED
;Layer: PTH_Through
;EasyEDA v6.5.1, 2022-06-25 03:13:47
;a67cddfb3fce44daa9051d46cbbcc19f,10
;Gerber Generator version 0.2
;Holesize 1 = 0.306 mm
T01C0.306
%
G05
G90
T01
X001075Y058925
X001075Y053925
X001075Y048925
X001075Y043925
X001075Y038925
X001075Y033925
X006075Y063925
X006075Y058925
X006075Y053925
X006075Y048925
X006075Y043925
X006075Y038925
X006075Y033925
X006075Y028925
X011075Y068925
X011075Y063925
X011075Y058925
X011075Y053925
X011075Y048925
X011075Y043925
X011075Y038925
X011075Y033925
X011075Y028925
X011075Y023925
X016075Y073925
X016075Y068925
X016075Y063925
X016075Y058925
X016075Y053925
X016075Y048925
X016075Y043925
X016075Y038925
X016075Y033925
X016075Y028925
X016075Y023925
X016075Y018925
X021075Y078925
X021075Y073925
X021075Y068925
X021075Y063925
X021075Y058925
X021075Y053925
X021075Y048925
X021075Y043925
X021075Y038925
X021075Y033925
X021075Y028925
X021075Y023925
X021075Y018925
X021075Y013925
X026075Y083925
X026075Y078925
X026075Y073925
X026075Y068925
X026075Y063925
X026075Y058925
X026075Y053925
X026075Y048925
X026075Y043925
X026075Y038925
X026075Y033925
X026075Y028925
X026075Y023925
X026075Y018925
X026075Y013925
X026075Y008925
X031075Y088925
X031075Y083925
X031075Y078925
X031075Y073925
X031075Y068925
X031075Y063925
X031075Y058925
X031075Y053925
X031075Y048925
X031075Y043925
X031075Y038925
X031075Y033925
X031075Y028925
X031075Y023925
X031075Y018925
X031075Y013925
X031075Y008925
X031075Y003925
X036075Y088925
X036075Y083925
X036075Y078925
X036075Y073925
X036075Y068925
X036075Y063925
X036075Y058925
X036075Y053925
X036075Y048925
X036075Y043925
X036075Y038925
X036075Y033925
X036075Y028925
X036075Y023925
X036075Y018925
X036075Y013925
X036075Y008925
X036075Y003925
X041075Y088925
X041075Y083925
X041075Y078925
X041075Y073925
X041075Y068925
X041075Y063925
X041075Y058925
X041075Y053925
X041075Y048925
X041075Y043925
X041075Y038925
X041075Y033925
X041075Y028925
X041075Y023925
X041075Y018925
X041075Y013925
X041075Y008925
X041075Y003925
X046075Y088925
X046075Y083925
X046075Y078925
X046075Y073925
X046075Y068925
X046075Y063925
X046075Y058925
X046075Y053925
X046075Y048925
X046075Y043925
X046075Y038925
X046075Y033925
X046075Y028925
X046075Y023925
X046075Y018925
X046075Y013925
X046075Y008925
X046075Y003925
X051075Y088925
X051075Y083925
X051075Y078925
X051075Y073925
X051075Y068925
X051075Y063925
X051075Y058925
X051075Y053925
X051075Y048925
X051075Y043925
X051075Y038925
X051075Y033925
X051075Y028925
X051075Y023925
X051075Y018925
X051075Y013925
X051075Y008925
X051075Y003925
X056075Y088925
X056075Y083925
X056075Y078925
X056075Y073925
X056075Y068925
X056075Y063925
X056075Y058925
X056075Y053925
X056075Y048925
X056075Y043925
X056075Y038925
X056075Y033925
X056075Y028925
X056075Y023925
X056075Y018925
X056075Y013925
X056075Y008925
X056075Y003925
X061075Y083925
X061075Y078925
X061075Y073925
X061075Y068925
X061075Y063925
X061075Y058925
X061075Y053925
X061075Y048925
X061075Y043925
X061075Y038925
X061075Y033925
X061075Y028925
X061075Y023925
X061075Y018925
X061075Y013925
X061075Y008925
X061075Y003925
X066075Y078925
X066075Y073925
X066075Y068925
X066075Y063925
X066075Y058925
X066075Y053925
X066075Y048925
X066075Y043925
X066075Y038925
X066075Y033925
X066075Y028925
X066075Y023925
X066075Y018925
X066075Y013925
X066075Y008925
X071075Y073925
X071075Y068925
X071075Y063925
X071075Y058925
X071075Y053925
X071075Y048925
X071075Y043925
X071075Y038925
X071075Y033925
X071075Y028925
X071075Y023925
X071075Y018925
X071075Y013925
X076075Y068925
X076075Y063925
X076075Y058925
X076075Y053925
X076075Y048925
X076075Y043925
X076075Y038925
X076075Y033925
X076075Y028925
X076075Y023925
X076075Y018925
X081075Y063925
X081075Y058925
X081075Y053925
X081075Y048925
X081075Y043925
X081075Y038925
X081075Y033925
X081075Y028925
X081075Y023925
X086075Y058925
X086075Y053925
X086075Y048925
X086075Y043925
X086075Y038925
X086075Y033925
X086075Y028925
M30
