G04 Layer: BottomLayer*
G04 EasyEDA v6.5.1, 2022-06-25 03:13:47*
G04 a67cddfb3fce44daa9051d46cbbcc19f,10*
G04 Gerber Generator version 0.2*
G04 Scale: 100 percent, Rotated: No, Reflected: No *
G04 Dimensions in millimeters *
G04 leading zeros omitted , absolute positions ,4 integer and 5 decimal *
%FSLAX45Y45*%
%MOMM*%

%ADD11C,0.6150*%

%LPD*%
G36*
X3014929Y25908D02*
G01*
X3011068Y26670D01*
X3007766Y28905D01*
X28905Y3007766D01*
X26670Y3011068D01*
X25908Y3014929D01*
X25908Y5985052D01*
X26670Y5988964D01*
X28905Y5992266D01*
X3007766Y8971127D01*
X3011068Y8973312D01*
X3014929Y8974074D01*
X5985052Y8974074D01*
X5988964Y8973312D01*
X5992266Y8971127D01*
X8971127Y5992266D01*
X8973312Y5988964D01*
X8974074Y5985052D01*
X8974074Y3014929D01*
X8973312Y3011068D01*
X8971076Y3007766D01*
X5992215Y28905D01*
X5988913Y26670D01*
X5985052Y25908D01*
G37*

%LPD*%
D11*
G01*
X107459Y5892543D03*
G01*
X107459Y5392541D03*
G01*
X107459Y4892542D03*
G01*
X107459Y4392541D03*
G01*
X107459Y3892542D03*
G01*
X107459Y3392543D03*
G01*
X607461Y6392542D03*
G01*
X607461Y5892543D03*
G01*
X607461Y5392541D03*
G01*
X607461Y4892542D03*
G01*
X607461Y4392541D03*
G01*
X607461Y3892542D03*
G01*
X607461Y3392543D03*
G01*
X607461Y2892541D03*
G01*
X1107460Y6892541D03*
G01*
X1107460Y6392542D03*
G01*
X1107460Y5892543D03*
G01*
X1107460Y5392541D03*
G01*
X1107460Y4892542D03*
G01*
X1107460Y4392541D03*
G01*
X1107460Y3892542D03*
G01*
X1107460Y3392543D03*
G01*
X1107460Y2892541D03*
G01*
X1107460Y2392542D03*
G01*
X1607459Y7392543D03*
G01*
X1607459Y6892541D03*
G01*
X1607459Y6392542D03*
G01*
X1607459Y5892543D03*
G01*
X1607459Y5392541D03*
G01*
X1607459Y4892542D03*
G01*
X1607459Y4392541D03*
G01*
X1607459Y3892542D03*
G01*
X1607459Y3392543D03*
G01*
X1607459Y2892541D03*
G01*
X1607459Y2392542D03*
G01*
X1607459Y1892541D03*
G01*
X2107460Y7892542D03*
G01*
X2107460Y7392543D03*
G01*
X2107460Y6892541D03*
G01*
X2107460Y6392542D03*
G01*
X2107460Y5892543D03*
G01*
X2107460Y5392541D03*
G01*
X2107460Y4892542D03*
G01*
X2107460Y4392541D03*
G01*
X2107460Y3892542D03*
G01*
X2107460Y3392543D03*
G01*
X2107460Y2892541D03*
G01*
X2107460Y2392542D03*
G01*
X2107460Y1892541D03*
G01*
X2107460Y1392542D03*
G01*
X2607459Y8392543D03*
G01*
X2607459Y7892542D03*
G01*
X2607459Y7392543D03*
G01*
X2607459Y6892541D03*
G01*
X2607459Y6392542D03*
G01*
X2607459Y5892543D03*
G01*
X2607459Y5392541D03*
G01*
X2607459Y4892542D03*
G01*
X2607459Y4392541D03*
G01*
X2607459Y3892542D03*
G01*
X2607459Y3392543D03*
G01*
X2607459Y2892541D03*
G01*
X2607459Y2392542D03*
G01*
X2607459Y1892541D03*
G01*
X2607459Y1392542D03*
G01*
X2607459Y892543D03*
G01*
X3107458Y8892542D03*
G01*
X3107458Y8392543D03*
G01*
X3107458Y7892542D03*
G01*
X3107458Y7392543D03*
G01*
X3107458Y6892541D03*
G01*
X3107458Y6392542D03*
G01*
X3107458Y5892543D03*
G01*
X3107458Y5392541D03*
G01*
X3107458Y4892542D03*
G01*
X3107458Y4392541D03*
G01*
X3107458Y3892542D03*
G01*
X3107458Y3392543D03*
G01*
X3107458Y2892541D03*
G01*
X3107458Y2392542D03*
G01*
X3107458Y1892541D03*
G01*
X3107458Y1392542D03*
G01*
X3107458Y892543D03*
G01*
X3107458Y392541D03*
G01*
X3607460Y8892542D03*
G01*
X3607460Y8392543D03*
G01*
X3607460Y7892542D03*
G01*
X3607460Y7392543D03*
G01*
X3607460Y6892541D03*
G01*
X3607460Y6392542D03*
G01*
X3607460Y5892543D03*
G01*
X3607460Y5392541D03*
G01*
X3607460Y4892542D03*
G01*
X3607460Y4392541D03*
G01*
X3607460Y3892542D03*
G01*
X3607460Y3392543D03*
G01*
X3607460Y2892541D03*
G01*
X3607460Y2392542D03*
G01*
X3607460Y1892541D03*
G01*
X3607460Y1392542D03*
G01*
X3607460Y892543D03*
G01*
X3607460Y392541D03*
G01*
X4107459Y8892542D03*
G01*
X4107459Y8392543D03*
G01*
X4107459Y7892542D03*
G01*
X4107459Y7392543D03*
G01*
X4107459Y6892541D03*
G01*
X4107459Y6392542D03*
G01*
X4107459Y5892543D03*
G01*
X4107459Y5392541D03*
G01*
X4107459Y4892542D03*
G01*
X4107459Y4392541D03*
G01*
X4107459Y3892542D03*
G01*
X4107459Y3392543D03*
G01*
X4107459Y2892541D03*
G01*
X4107459Y2392542D03*
G01*
X4107459Y1892541D03*
G01*
X4107459Y1392542D03*
G01*
X4107459Y892543D03*
G01*
X4107459Y392541D03*
G01*
X4607460Y8892542D03*
G01*
X4607460Y8392543D03*
G01*
X4607460Y7892542D03*
G01*
X4607460Y7392543D03*
G01*
X4607460Y6892541D03*
G01*
X4607460Y6392542D03*
G01*
X4607460Y5892543D03*
G01*
X4607460Y5392541D03*
G01*
X4607460Y4892542D03*
G01*
X4607460Y4392541D03*
G01*
X4607460Y3892542D03*
G01*
X4607460Y3392543D03*
G01*
X4607460Y2892541D03*
G01*
X4607460Y2392542D03*
G01*
X4607460Y1892541D03*
G01*
X4607460Y1392542D03*
G01*
X4607460Y892543D03*
G01*
X4607460Y392541D03*
G01*
X5107459Y8892542D03*
G01*
X5107459Y8392543D03*
G01*
X5107459Y7892542D03*
G01*
X5107459Y7392543D03*
G01*
X5107459Y6892541D03*
G01*
X5107459Y6392542D03*
G01*
X5107459Y5892543D03*
G01*
X5107459Y5392541D03*
G01*
X5107459Y4892542D03*
G01*
X5107459Y4392541D03*
G01*
X5107459Y3892542D03*
G01*
X5107459Y3392543D03*
G01*
X5107459Y2892541D03*
G01*
X5107459Y2392542D03*
G01*
X5107459Y1892541D03*
G01*
X5107459Y1392542D03*
G01*
X5107459Y892543D03*
G01*
X5107459Y392541D03*
G01*
X5607458Y8892542D03*
G01*
X5607458Y8392543D03*
G01*
X5607458Y7892542D03*
G01*
X5607458Y7392543D03*
G01*
X5607458Y6892541D03*
G01*
X5607458Y6392542D03*
G01*
X5607458Y5892543D03*
G01*
X5607458Y5392541D03*
G01*
X5607458Y4892542D03*
G01*
X5607458Y4392541D03*
G01*
X5607458Y3892542D03*
G01*
X5607458Y3392543D03*
G01*
X5607458Y2892541D03*
G01*
X5607458Y2392542D03*
G01*
X5607458Y1892541D03*
G01*
X5607458Y1392542D03*
G01*
X5607458Y892543D03*
G01*
X5607458Y392541D03*
G01*
X6107460Y8392543D03*
G01*
X6107460Y7892542D03*
G01*
X6107460Y7392543D03*
G01*
X6107460Y6892541D03*
G01*
X6107460Y6392542D03*
G01*
X6107460Y5892543D03*
G01*
X6107460Y5392541D03*
G01*
X6107460Y4892542D03*
G01*
X6107460Y4392541D03*
G01*
X6107460Y3892542D03*
G01*
X6107460Y3392543D03*
G01*
X6107460Y2892541D03*
G01*
X6107460Y2392542D03*
G01*
X6107460Y1892541D03*
G01*
X6107460Y1392542D03*
G01*
X6107460Y892543D03*
G01*
X6107460Y392541D03*
G01*
X6607459Y7892542D03*
G01*
X6607459Y7392543D03*
G01*
X6607459Y6892541D03*
G01*
X6607459Y6392542D03*
G01*
X6607459Y5892543D03*
G01*
X6607459Y5392541D03*
G01*
X6607459Y4892542D03*
G01*
X6607459Y4392541D03*
G01*
X6607459Y3892542D03*
G01*
X6607459Y3392543D03*
G01*
X6607459Y2892541D03*
G01*
X6607459Y2392542D03*
G01*
X6607459Y1892541D03*
G01*
X6607459Y1392542D03*
G01*
X6607459Y892543D03*
G01*
X7107461Y7392543D03*
G01*
X7107461Y6892541D03*
G01*
X7107461Y6392542D03*
G01*
X7107461Y5892543D03*
G01*
X7107461Y5392541D03*
G01*
X7107461Y4892542D03*
G01*
X7107461Y4392541D03*
G01*
X7107461Y3892542D03*
G01*
X7107461Y3392543D03*
G01*
X7107461Y2892541D03*
G01*
X7107461Y2392542D03*
G01*
X7107461Y1892541D03*
G01*
X7107461Y1392542D03*
G01*
X7607460Y6892541D03*
G01*
X7607460Y6392542D03*
G01*
X7607460Y5892543D03*
G01*
X7607460Y5392541D03*
G01*
X7607460Y4892542D03*
G01*
X7607460Y4392541D03*
G01*
X7607460Y3892542D03*
G01*
X7607460Y3392543D03*
G01*
X7607460Y2892541D03*
G01*
X7607460Y2392542D03*
G01*
X7607460Y1892541D03*
G01*
X8107459Y6392542D03*
G01*
X8107459Y5892543D03*
G01*
X8107459Y5392541D03*
G01*
X8107459Y4892542D03*
G01*
X8107459Y4392541D03*
G01*
X8107459Y3892542D03*
G01*
X8107459Y3392543D03*
G01*
X8107459Y2892541D03*
G01*
X8107459Y2392542D03*
G01*
X8607460Y5892543D03*
G01*
X8607460Y5392541D03*
G01*
X8607460Y4892542D03*
G01*
X8607460Y4392541D03*
G01*
X8607460Y3892542D03*
G01*
X8607460Y3392543D03*
G01*
X8607460Y2892541D03*
M02*
