G04 Layer: TopSilkscreenLayer*
G04 EasyEDA v6.5.1, 2022-06-25 03:13:47*
G04 a67cddfb3fce44daa9051d46cbbcc19f,10*
G04 Gerber Generator version 0.2*
G04 Scale: 100 percent, Rotated: No, Reflected: No *
G04 Dimensions in millimeters *
G04 leading zeros omitted , absolute positions ,4 integer and 5 decimal *
%FSLAX45Y45*%
%MOMM*%

%ADD12C,3.0000*%

%LPD*%
D12*
X2363726Y4963619D02*
G01*
X2272794Y5145483D01*
X2090930Y5327347D01*
X1909066Y5418279D01*
X1545338Y5418279D01*
X1363728Y5327347D01*
X1181864Y5145483D01*
X1090932Y4963619D01*
X1000000Y4690823D01*
X1000000Y4236417D01*
X1090932Y3963621D01*
X1181864Y3781757D01*
X1363728Y3599893D01*
X1545338Y3509215D01*
X1909066Y3509215D01*
X2090930Y3599893D01*
X2272794Y3781757D01*
X2363726Y3963621D01*
X2363726Y4236417D01*
X1909066Y4236417D02*
G01*
X2363726Y4236417D01*
X2963674Y5418279D02*
G01*
X2963674Y3509215D01*
X2963674Y5418279D02*
G01*
X3781808Y5418279D01*
X4054604Y5327347D01*
X4145536Y5236415D01*
X4236468Y5054551D01*
X4236468Y4872687D01*
X4145536Y4690823D01*
X4054604Y4599891D01*
X3781808Y4509213D01*
X2963674Y4509213D01*
X3599944Y4509213D02*
G01*
X4236468Y3509215D01*
X4836416Y5418279D02*
G01*
X4836416Y3509215D01*
X4836416Y5418279D02*
G01*
X6018278Y5418279D01*
X4836416Y4509213D02*
G01*
X5563618Y4509213D01*
X4836416Y3509215D02*
G01*
X6018278Y3509215D01*
X7981698Y4963619D02*
G01*
X7891020Y5145483D01*
X7709156Y5327347D01*
X7527292Y5418279D01*
X7163564Y5418279D01*
X6981700Y5327347D01*
X6800090Y5145483D01*
X6709158Y4963619D01*
X6618226Y4690823D01*
X6618226Y4236417D01*
X6709158Y3963621D01*
X6800090Y3781757D01*
X6981700Y3599893D01*
X7163564Y3509215D01*
X7527292Y3509215D01*
X7709156Y3599893D01*
X7891020Y3781757D01*
X7981698Y3963621D01*
X7981698Y4236417D01*
X7527292Y4236417D02*
G01*
X7981698Y4236417D01*
M02*
