M48
METRIC,LZ,000.000
;FILE_FORMAT=3:3
;TYPE=PLATED
;Layer: PTH_Through
;EasyEDA v6.5.1, 2022-09-16 22:40:58
;a67cddfb3fce44daa9051d46cbbcc19f,10
;Gerber Generator version 0.2
;Holesize 1 = 0.306 mm
T01C0.306
%
G05
G90
T01
X001072Y063927
X001072Y058927
X001072Y053927
X001072Y048927
X001072Y043927
X001072Y038927
X001072Y033927
X006072Y068927
X006072Y063927
X006072Y058927
X006072Y053927
X006072Y048927
X006072Y043927
X006072Y038927
X006072Y033927
X006072Y028927
X011072Y073927
X011072Y068927
X011072Y063927
X011072Y058927
X011072Y053927
X011072Y048927
X011072Y043927
X011072Y038927
X011072Y033927
X011072Y028927
X011072Y023927
X016072Y078927
X016072Y073927
X016072Y068927
X016072Y063927
X016072Y058927
X016072Y053927
X016072Y048927
X016072Y043927
X016072Y038927
X016072Y033927
X016072Y028927
X016072Y023927
X016072Y018927
X021072Y083927
X021072Y078927
X021072Y073927
X021072Y068927
X021072Y063927
X021072Y058927
X021072Y053927
X021072Y048927
X021072Y043927
X021072Y038927
X021072Y033927
X021072Y028927
X021072Y023927
X021072Y018927
X021072Y013927
X026072Y088927
X026072Y083927
X026072Y078927
X026072Y073927
X026072Y068927
X026072Y063927
X026072Y058927
X026072Y053927
X026072Y048927
X026072Y043927
X026072Y038927
X026072Y033927
X026072Y028927
X026072Y023927
X026072Y018927
X026072Y013927
X026072Y008927
X031072Y093927
X031072Y088927
X031072Y083927
X031072Y078927
X031072Y073927
X031072Y068927
X031072Y063927
X031072Y058927
X031072Y053927
X031072Y048927
X031072Y043927
X031072Y038927
X031072Y033927
X031072Y028927
X031072Y023927
X031072Y018927
X031072Y013927
X031072Y008927
X031072Y003927
X036072Y098927
X036072Y093927
X036072Y088927
X036072Y083927
X036072Y078927
X036072Y073927
X036072Y068927
X036072Y063927
X036072Y058927
X036072Y053927
X036072Y048927
X036072Y043927
X036072Y038927
X036072Y033927
X036072Y028927
X036072Y023927
X036072Y018927
X036072Y013927
X036072Y008927
X036072Y003927
X041072Y098927
X041072Y093927
X041072Y088927
X041072Y083927
X041072Y078927
X041072Y073927
X041072Y068927
X041072Y063927
X041072Y058927
X041072Y053927
X041072Y048927
X041072Y043927
X041072Y038927
X041072Y033927
X041072Y028927
X041072Y023927
X041072Y018927
X041072Y013927
X041072Y008927
X041072Y003927
X046072Y098927
X046072Y093927
X046072Y088927
X046072Y083927
X046072Y078927
X046072Y073927
X046072Y068927
X046072Y063927
X046072Y058927
X046072Y053927
X046072Y048927
X046072Y043927
X046072Y038927
X046072Y033927
X046072Y028927
X046072Y023927
X046072Y018927
X046072Y013927
X046072Y008927
X046072Y003927
X051072Y098927
X051072Y093927
X051072Y088927
X051072Y083927
X051072Y078927
X051072Y073927
X051072Y068927
X051072Y063927
X051072Y058927
X051072Y053927
X051072Y048927
X051072Y043927
X051072Y038927
X051072Y033927
X051072Y028927
X051072Y023927
X051072Y018927
X051072Y013927
X051072Y008927
X051072Y003927
X056072Y098927
X056072Y093927
X056072Y088927
X056072Y083927
X056072Y078927
X056072Y073927
X056072Y068927
X056072Y063927
X056072Y058927
X056072Y053927
X056072Y048927
X056072Y043927
X056072Y038927
X056072Y033927
X056072Y028927
X056072Y023927
X056072Y018927
X056072Y013927
X056072Y008927
X056072Y003927
X061072Y098927
X061072Y093927
X061072Y088927
X061072Y083927
X061072Y078927
X061072Y073927
X061072Y068927
X061072Y063927
X061072Y058927
X061072Y053927
X061072Y048927
X061072Y043927
X061072Y038927
X061072Y033927
X061072Y028927
X061072Y023927
X061072Y018927
X061072Y013927
X061072Y008927
X061072Y003927
X066072Y098927
X066072Y093927
X066072Y088927
X066072Y083927
X066072Y078927
X066072Y073927
X066072Y068927
X066072Y063927
X066072Y058927
X066072Y053927
X066072Y048927
X066072Y043927
X066072Y038927
X066072Y033927
X066072Y028927
X066072Y023927
X066072Y018927
X066072Y013927
X066072Y008927
X066072Y003927
X071072Y093927
X071072Y088927
X071072Y083927
X071072Y078927
X071072Y073927
X071072Y068927
X071072Y063927
X071072Y058927
X071072Y053927
X071072Y048927
X071072Y043927
X071072Y038927
X071072Y033927
X071072Y028927
X071072Y023927
X071072Y018927
X071072Y013927
X071072Y008927
X076072Y088927
X076072Y083927
X076072Y078927
X076072Y073927
X076072Y068927
X076072Y063927
X076072Y058927
X076072Y053927
X076072Y048927
X076072Y043927
X076072Y038927
X076072Y033927
X076072Y028927
X076072Y023927
X076072Y018927
X076072Y013927
X081072Y083927
X081072Y078927
X081072Y073927
X081072Y068927
X081072Y063927
X081072Y058927
X081072Y053927
X081072Y048927
X081072Y043927
X081072Y038927
X081072Y033927
X081072Y028927
X081072Y023927
X081072Y018927
X086072Y078927
X086072Y073927
X086072Y068927
X086072Y063927
X086072Y058927
X086072Y053927
X086072Y048927
X086072Y043927
X086072Y038927
X086072Y033927
X086072Y028927
X086072Y023927
X091072Y073927
X091072Y068927
X091072Y063927
X091072Y058927
X091072Y053927
X091072Y048927
X091072Y043927
X091072Y038927
X091072Y033927
X091072Y028927
X096072Y068927
X096072Y063927
X096072Y058927
X096072Y053927
X096072Y048927
X096072Y043927
X096072Y038927
X096072Y033927
X001072Y063927
X001072Y058927
X001072Y053927
X001072Y048927
X001072Y043927
X001072Y038927
X001072Y033927
X006072Y068927
X006072Y063927
X006072Y058927
X006072Y053927
X006072Y048927
X006072Y043927
X006072Y038927
X006072Y033927
X006072Y028927
X011072Y073927
X011072Y068927
X011072Y063927
X011072Y058927
X011072Y053927
X011072Y048927
X011072Y043927
X011072Y038927
X011072Y033927
X011072Y028927
X011072Y023927
X016072Y078927
X016072Y073927
X016072Y068927
X016072Y063927
X016072Y058927
X016072Y053927
X016072Y048927
X016072Y043927
X016072Y038927
X016072Y033927
X016072Y028927
X016072Y023927
X016072Y018927
X021072Y083927
X021072Y078927
X021072Y073927
X021072Y068927
X021072Y063927
X021072Y058927
X021072Y053927
X021072Y048927
X021072Y043927
X021072Y038927
X021072Y033927
X021072Y028927
X021072Y023927
X021072Y018927
X021072Y013927
X026072Y088927
X026072Y083927
X026072Y078927
X026072Y073927
X026072Y068927
X026072Y063927
X026072Y058927
X026072Y053927
X026072Y048927
X026072Y043927
X026072Y038927
X026072Y033927
X026072Y028927
X026072Y023927
X026072Y018927
X026072Y013927
X026072Y008927
X031072Y093927
X031072Y088927
X031072Y083927
X031072Y078927
X031072Y073927
X031072Y068927
X031072Y063927
X031072Y058927
X031072Y053927
X031072Y048927
X031072Y043927
X031072Y038927
X031072Y033927
X031072Y028927
X031072Y023927
X031072Y018927
X031072Y013927
X031072Y008927
X031072Y003927
X036072Y098927
X036072Y093927
X036072Y088927
X036072Y083927
X036072Y078927
X036072Y073927
X036072Y068927
X036072Y063927
X036072Y058927
X036072Y053927
X036072Y048927
X036072Y043927
X036072Y038927
X036072Y033927
X036072Y028927
X036072Y023927
X036072Y018927
X036072Y013927
X036072Y008927
X036072Y003927
X041072Y098927
X041072Y093927
X041072Y088927
X041072Y083927
X041072Y078927
X041072Y073927
X041072Y068927
X041072Y063927
X041072Y058927
X041072Y053927
X041072Y048927
X041072Y043927
X041072Y038927
X041072Y033927
X041072Y028927
X041072Y023927
X041072Y018927
X041072Y013927
X041072Y008927
X041072Y003927
X046072Y098927
X046072Y093927
X046072Y088927
X046072Y083927
X046072Y078927
X046072Y073927
X046072Y068927
X046072Y063927
X046072Y058927
X046072Y053927
X046072Y048927
X046072Y043927
X046072Y038927
X046072Y033927
X046072Y028927
X046072Y023927
X046072Y018927
X046072Y013927
X046072Y008927
X046072Y003927
X051072Y098927
X051072Y093927
X051072Y088927
X051072Y083927
X051072Y078927
X051072Y073927
X051072Y068927
X051072Y063927
X051072Y058927
X051072Y053927
X051072Y048927
X051072Y043927
X051072Y038927
X051072Y033927
X051072Y028927
X051072Y023927
X051072Y018927
X051072Y013927
X051072Y008927
X051072Y003927
X056072Y098927
X056072Y093927
X056072Y088927
X056072Y083927
X056072Y078927
X056072Y073927
X056072Y068927
X056072Y063927
X056072Y058927
X056072Y053927
X056072Y048927
X056072Y043927
X056072Y038927
X056072Y033927
X056072Y028927
X056072Y023927
X056072Y018927
X056072Y013927
X056072Y008927
X056072Y003927
X061072Y098927
X061072Y093927
X061072Y088927
X061072Y083927
X061072Y078927
X061072Y073927
X061072Y068927
X061072Y063927
X061072Y058927
X061072Y053927
X061072Y048927
X061072Y043927
X061072Y038927
X061072Y033927
X061072Y028927
X061072Y023927
X061072Y018927
X061072Y013927
X061072Y008927
X061072Y003927
X066072Y098927
X066072Y093927
X066072Y088927
X066072Y083927
X066072Y078927
X066072Y073927
X066072Y068927
X066072Y063927
X066072Y058927
X066072Y053927
X066072Y048927
X066072Y043927
X066072Y038927
X066072Y033927
X066072Y028927
X066072Y023927
X066072Y018927
X066072Y013927
X066072Y008927
X066072Y003927
X071072Y093927
X071072Y088927
X071072Y083927
X071072Y078927
X071072Y073927
X071072Y068927
X071072Y063927
X071072Y058927
X071072Y053927
X071072Y048927
X071072Y043927
X071072Y038927
X071072Y033927
X071072Y028927
X071072Y023927
X071072Y018927
X071072Y013927
X071072Y008927
X076072Y088927
X076072Y083927
X076072Y078927
X076072Y073927
X076072Y068927
X076072Y063927
X076072Y058927
X076072Y053927
X076072Y048927
X076072Y043927
X076072Y038927
X076072Y033927
X076072Y028927
X076072Y023927
X076072Y018927
X076072Y013927
X081072Y083927
X081072Y078927
X081072Y073927
X081072Y068927
X081072Y063927
X081072Y058927
X081072Y053927
X081072Y048927
X081072Y043927
X081072Y038927
X081072Y033927
X081072Y028927
X081072Y023927
X081072Y018927
X086072Y078927
X086072Y073927
X086072Y068927
X086072Y063927
X086072Y058927
X086072Y053927
X086072Y048927
X086072Y043927
X086072Y038927
X086072Y033927
X086072Y028927
X086072Y023927
X091072Y073927
X091072Y068927
X091072Y063927
X091072Y058927
X091072Y053927
X091072Y048927
X091072Y043927
X091072Y038927
X091072Y033927
X091072Y028927
X096072Y068927
X096072Y063927
X096072Y058927
X096072Y053927
X096072Y048927
X096072Y043927
X096072Y038927
X096072Y033927
M30
