G04 Layer: TopSilkscreenLayer*
G04 EasyEDA v6.5.1, 2022-09-16 22:40:58*
G04 a67cddfb3fce44daa9051d46cbbcc19f,10*
G04 Gerber Generator version 0.2*
G04 Scale: 100 percent, Rotated: No, Reflected: No *
G04 Dimensions in millimeters *
G04 leading zeros omitted , absolute positions ,4 integer and 5 decimal *
%FSLAX45Y45*%
%MOMM*%

%ADD12C,5.0000*%
%ADD13C,3.0000*%

%LPD*%
D13*
X2863728Y5563626D02*
G01*
X2772796Y5745490D01*
X2590932Y5927354D01*
X2409068Y6018286D01*
X2045340Y6018286D01*
X1863730Y5927354D01*
X1681866Y5745490D01*
X1590934Y5563626D01*
X1500002Y5290830D01*
X1500002Y4836424D01*
X1590934Y4563628D01*
X1681866Y4381764D01*
X1863730Y4199900D01*
X2045340Y4109222D01*
X2409068Y4109222D01*
X2590932Y4199900D01*
X2772796Y4381764D01*
X2863728Y4563628D01*
X2863728Y4836424D01*
X2409068Y4836424D02*
G01*
X2863728Y4836424D01*
X3463676Y6018286D02*
G01*
X3463676Y4109222D01*
X3463676Y6018286D02*
G01*
X4281810Y6018286D01*
X4554606Y5927354D01*
X4645538Y5836422D01*
X4736470Y5654558D01*
X4736470Y5472694D01*
X4645538Y5290830D01*
X4554606Y5199898D01*
X4281810Y5109220D01*
X3463676Y5109220D01*
X4099946Y5109220D02*
G01*
X4736470Y4109222D01*
X5336418Y6018286D02*
G01*
X5336418Y4109222D01*
X5336418Y6018286D02*
G01*
X6518280Y6018286D01*
X5336418Y5109220D02*
G01*
X6063620Y5109220D01*
X5336418Y4109222D02*
G01*
X6518280Y4109222D01*
X8481700Y5563626D02*
G01*
X8391022Y5745490D01*
X8209158Y5927354D01*
X8027294Y6018286D01*
X7663566Y6018286D01*
X7481702Y5927354D01*
X7300092Y5745490D01*
X7209160Y5563626D01*
X7118228Y5290830D01*
X7118228Y4836424D01*
X7209160Y4563628D01*
X7300092Y4381764D01*
X7481702Y4199900D01*
X7663566Y4109222D01*
X8027294Y4109222D01*
X8209158Y4199900D01*
X8391022Y4381764D01*
X8481700Y4563628D01*
X8481700Y4836424D01*
X8027294Y4836424D02*
G01*
X8481700Y4836424D01*
D12*
X0Y2999994D02*
G01*
X0Y6999986D01*
X2999993Y9999979D01*
X6999986Y9999979D01*
X9999979Y6999986D01*
X9999979Y2999994D01*
X6999986Y0D01*
X2999999Y0D01*
X0Y2999994D01*
M02*
