G04 Layer: BottomSilkscreenLayer*
G04 EasyEDA v6.5.1, 2022-09-16 22:40:58*
G04 a67cddfb3fce44daa9051d46cbbcc19f,10*
G04 Gerber Generator version 0.2*
G04 Scale: 100 percent, Rotated: No, Reflected: No *
G04 Dimensions in millimeters *
G04 leading zeros omitted , absolute positions ,4 integer and 5 decimal *
%FSLAX45Y45*%
%MOMM*%

%ADD12C,5.0000*%
%ADD13C,3.0000*%

%LPD*%
D13*
X7363625Y6018189D02*
G01*
X7363625Y4109097D01*
X7999989Y6018189D02*
G01*
X6727261Y6018189D01*
X6127262Y6018189D02*
G01*
X6127262Y4109097D01*
X4254535Y5745462D02*
G01*
X4436353Y5927280D01*
X4709078Y6018189D01*
X5072715Y6018189D01*
X5345442Y5927280D01*
X5527260Y5745462D01*
X5527260Y5563643D01*
X5436351Y5381825D01*
X5345442Y5290916D01*
X5163624Y5200007D01*
X4618172Y5018189D01*
X4436353Y4927279D01*
X4345444Y4836370D01*
X4254535Y4654552D01*
X4254535Y4381825D01*
X4436353Y4200006D01*
X4709078Y4109097D01*
X5072715Y4109097D01*
X5345442Y4200006D01*
X5527260Y4381825D01*
X3654534Y6018189D02*
G01*
X3654534Y4109097D01*
X3654534Y6018189D02*
G01*
X2927261Y4109097D01*
X2199987Y6018189D02*
G01*
X2927261Y4109097D01*
X2199987Y6018189D02*
G01*
X2199987Y4109097D01*
D12*
X0Y2999999D02*
G01*
X0Y7000001D01*
X2999999Y10000000D01*
X7000001Y10000000D01*
X10000000Y7000001D01*
X10000000Y2999999D01*
X7000001Y0D01*
X2999999Y0D01*
X0Y2999999D01*
M02*
