G04 Layer: TopLayer*
G04 EasyEDA v6.5.1, 2022-09-16 22:40:58*
G04 a67cddfb3fce44daa9051d46cbbcc19f,10*
G04 Gerber Generator version 0.2*
G04 Scale: 100 percent, Rotated: No, Reflected: No *
G04 Dimensions in millimeters *
G04 leading zeros omitted , absolute positions ,4 integer and 5 decimal *
%FSLAX45Y45*%
%MOMM*%

%ADD11C,0.6100*%

%LPD*%
G36*
X3014929Y25908D02*
G01*
X3011068Y26670D01*
X3007766Y28905D01*
X28905Y3007766D01*
X26670Y3011068D01*
X25908Y3014929D01*
X25908Y6985050D01*
X26670Y6988962D01*
X28905Y6992264D01*
X3007766Y9971125D01*
X3011068Y9973310D01*
X3014929Y9974072D01*
X6985050Y9974072D01*
X6988962Y9973310D01*
X6992264Y9971125D01*
X9971125Y6992264D01*
X9973310Y6988962D01*
X9974072Y6985050D01*
X9974072Y3014929D01*
X9973310Y3011068D01*
X9971125Y3007766D01*
X6992264Y28905D01*
X6988962Y26670D01*
X6985050Y25908D01*
G37*

%LPD*%
D11*
G01*
X107213Y6392697D03*
G01*
X107213Y5892698D03*
G01*
X107213Y5392699D03*
G01*
X107213Y4892700D03*
G01*
X107213Y4392701D03*
G01*
X107213Y3892702D03*
G01*
X107213Y3392703D03*
G01*
X607212Y6892696D03*
G01*
X607212Y6392697D03*
G01*
X607212Y5892698D03*
G01*
X607212Y5392699D03*
G01*
X607212Y4892700D03*
G01*
X607212Y4392701D03*
G01*
X607212Y3892702D03*
G01*
X607212Y3392703D03*
G01*
X607212Y2892679D03*
G01*
X1107211Y7392695D03*
G01*
X1107211Y6892696D03*
G01*
X1107211Y6392697D03*
G01*
X1107211Y5892698D03*
G01*
X1107211Y5392699D03*
G01*
X1107211Y4892700D03*
G01*
X1107211Y4392701D03*
G01*
X1107211Y3892702D03*
G01*
X1107211Y3392703D03*
G01*
X1107211Y2892679D03*
G01*
X1107211Y2392679D03*
G01*
X1607210Y7892694D03*
G01*
X1607210Y7392695D03*
G01*
X1607210Y6892696D03*
G01*
X1607210Y6392697D03*
G01*
X1607210Y5892698D03*
G01*
X1607210Y5392699D03*
G01*
X1607210Y4892700D03*
G01*
X1607210Y4392701D03*
G01*
X1607210Y3892702D03*
G01*
X1607210Y3392703D03*
G01*
X1607210Y2892679D03*
G01*
X1607210Y2392679D03*
G01*
X1607210Y1892680D03*
G01*
X2107209Y8392693D03*
G01*
X2107209Y7892694D03*
G01*
X2107209Y7392695D03*
G01*
X2107209Y6892696D03*
G01*
X2107209Y6392697D03*
G01*
X2107209Y5892698D03*
G01*
X2107209Y5392699D03*
G01*
X2107209Y4892700D03*
G01*
X2107209Y4392701D03*
G01*
X2107209Y3892702D03*
G01*
X2107209Y3392703D03*
G01*
X2107209Y2892679D03*
G01*
X2107209Y2392679D03*
G01*
X2107209Y1892680D03*
G01*
X2107209Y1392681D03*
G01*
X2607208Y8892692D03*
G01*
X2607208Y8392693D03*
G01*
X2607208Y7892694D03*
G01*
X2607208Y7392695D03*
G01*
X2607208Y6892696D03*
G01*
X2607208Y6392697D03*
G01*
X2607208Y5892698D03*
G01*
X2607208Y5392699D03*
G01*
X2607208Y4892700D03*
G01*
X2607208Y4392701D03*
G01*
X2607208Y3892702D03*
G01*
X2607208Y3392703D03*
G01*
X2607208Y2892679D03*
G01*
X2607208Y2392679D03*
G01*
X2607208Y1892680D03*
G01*
X2607208Y1392681D03*
G01*
X2607208Y892682D03*
G01*
X3107207Y9392691D03*
G01*
X3107207Y8892692D03*
G01*
X3107207Y8392693D03*
G01*
X3107207Y7892694D03*
G01*
X3107207Y7392695D03*
G01*
X3107207Y6892696D03*
G01*
X3107207Y6392697D03*
G01*
X3107207Y5892698D03*
G01*
X3107207Y5392699D03*
G01*
X3107207Y4892700D03*
G01*
X3107207Y4392701D03*
G01*
X3107207Y3892702D03*
G01*
X3107207Y3392703D03*
G01*
X3107207Y2892679D03*
G01*
X3107207Y2392679D03*
G01*
X3107207Y1892680D03*
G01*
X3107207Y1392681D03*
G01*
X3107207Y892682D03*
G01*
X3107207Y392684D03*
G01*
X3607206Y9892690D03*
G01*
X3607206Y9392691D03*
G01*
X3607206Y8892692D03*
G01*
X3607206Y8392693D03*
G01*
X3607206Y7892694D03*
G01*
X3607206Y7392695D03*
G01*
X3607206Y6892696D03*
G01*
X3607206Y6392697D03*
G01*
X3607206Y5892698D03*
G01*
X3607206Y5392699D03*
G01*
X3607206Y4892700D03*
G01*
X3607206Y4392701D03*
G01*
X3607206Y3892702D03*
G01*
X3607206Y3392703D03*
G01*
X3607206Y2892679D03*
G01*
X3607206Y2392679D03*
G01*
X3607206Y1892680D03*
G01*
X3607206Y1392681D03*
G01*
X3607206Y892682D03*
G01*
X3607206Y392684D03*
G01*
X4107205Y9892690D03*
G01*
X4107205Y9392691D03*
G01*
X4107205Y8892692D03*
G01*
X4107205Y8392693D03*
G01*
X4107205Y7892694D03*
G01*
X4107205Y7392695D03*
G01*
X4107205Y6892696D03*
G01*
X4107205Y6392697D03*
G01*
X4107205Y5892698D03*
G01*
X4107205Y5392699D03*
G01*
X4107205Y4892700D03*
G01*
X4107205Y4392701D03*
G01*
X4107205Y3892702D03*
G01*
X4107205Y3392703D03*
G01*
X4107205Y2892679D03*
G01*
X4107205Y2392679D03*
G01*
X4107205Y1892680D03*
G01*
X4107205Y1392681D03*
G01*
X4107205Y892682D03*
G01*
X4107205Y392684D03*
G01*
X4607204Y9892690D03*
G01*
X4607204Y9392691D03*
G01*
X4607204Y8892692D03*
G01*
X4607204Y8392693D03*
G01*
X4607204Y7892694D03*
G01*
X4607204Y7392695D03*
G01*
X4607204Y6892696D03*
G01*
X4607204Y6392697D03*
G01*
X4607204Y5892698D03*
G01*
X4607204Y5392699D03*
G01*
X4607204Y4892700D03*
G01*
X4607204Y4392701D03*
G01*
X4607204Y3892702D03*
G01*
X4607204Y3392703D03*
G01*
X4607204Y2892679D03*
G01*
X4607204Y2392679D03*
G01*
X4607204Y1892680D03*
G01*
X4607204Y1392681D03*
G01*
X4607204Y892682D03*
G01*
X4607204Y392684D03*
G01*
X5107203Y9892690D03*
G01*
X5107203Y9392691D03*
G01*
X5107203Y8892692D03*
G01*
X5107203Y8392693D03*
G01*
X5107203Y7892694D03*
G01*
X5107203Y7392695D03*
G01*
X5107203Y6892696D03*
G01*
X5107203Y6392697D03*
G01*
X5107203Y5892698D03*
G01*
X5107203Y5392699D03*
G01*
X5107203Y4892700D03*
G01*
X5107203Y4392701D03*
G01*
X5107203Y3892702D03*
G01*
X5107203Y3392703D03*
G01*
X5107203Y2892679D03*
G01*
X5107203Y2392679D03*
G01*
X5107203Y1892680D03*
G01*
X5107203Y1392681D03*
G01*
X5107203Y892682D03*
G01*
X5107203Y392684D03*
G01*
X5607202Y9892690D03*
G01*
X5607202Y9392691D03*
G01*
X5607202Y8892692D03*
G01*
X5607202Y8392693D03*
G01*
X5607202Y7892694D03*
G01*
X5607202Y7392695D03*
G01*
X5607202Y6892696D03*
G01*
X5607202Y6392697D03*
G01*
X5607202Y5892698D03*
G01*
X5607202Y5392699D03*
G01*
X5607202Y4892700D03*
G01*
X5607202Y4392701D03*
G01*
X5607202Y3892702D03*
G01*
X5607202Y3392703D03*
G01*
X5607202Y2892679D03*
G01*
X5607202Y2392679D03*
G01*
X5607202Y1892680D03*
G01*
X5607202Y1392681D03*
G01*
X5607202Y892682D03*
G01*
X5607202Y392684D03*
G01*
X6107201Y9892690D03*
G01*
X6107201Y9392691D03*
G01*
X6107201Y8892692D03*
G01*
X6107201Y8392693D03*
G01*
X6107201Y7892694D03*
G01*
X6107201Y7392695D03*
G01*
X6107201Y6892696D03*
G01*
X6107201Y6392697D03*
G01*
X6107201Y5892698D03*
G01*
X6107201Y5392699D03*
G01*
X6107201Y4892700D03*
G01*
X6107201Y4392701D03*
G01*
X6107201Y3892702D03*
G01*
X6107201Y3392703D03*
G01*
X6107201Y2892679D03*
G01*
X6107201Y2392679D03*
G01*
X6107201Y1892680D03*
G01*
X6107201Y1392681D03*
G01*
X6107201Y892682D03*
G01*
X6107201Y392684D03*
G01*
X6607200Y9892690D03*
G01*
X6607200Y9392691D03*
G01*
X6607200Y8892692D03*
G01*
X6607200Y8392693D03*
G01*
X6607200Y7892694D03*
G01*
X6607200Y7392695D03*
G01*
X6607200Y6892696D03*
G01*
X6607200Y6392697D03*
G01*
X6607200Y5892698D03*
G01*
X6607200Y5392699D03*
G01*
X6607200Y4892700D03*
G01*
X6607200Y4392701D03*
G01*
X6607200Y3892702D03*
G01*
X6607200Y3392703D03*
G01*
X6607200Y2892679D03*
G01*
X6607200Y2392679D03*
G01*
X6607200Y1892680D03*
G01*
X6607200Y1392681D03*
G01*
X6607200Y892682D03*
G01*
X6607200Y392684D03*
G01*
X7107199Y9392691D03*
G01*
X7107199Y8892692D03*
G01*
X7107199Y8392693D03*
G01*
X7107199Y7892694D03*
G01*
X7107199Y7392695D03*
G01*
X7107199Y6892696D03*
G01*
X7107199Y6392697D03*
G01*
X7107199Y5892698D03*
G01*
X7107199Y5392699D03*
G01*
X7107199Y4892700D03*
G01*
X7107199Y4392701D03*
G01*
X7107199Y3892702D03*
G01*
X7107199Y3392703D03*
G01*
X7107199Y2892679D03*
G01*
X7107199Y2392679D03*
G01*
X7107199Y1892680D03*
G01*
X7107199Y1392681D03*
G01*
X7107199Y892682D03*
G01*
X7607198Y8892692D03*
G01*
X7607198Y8392693D03*
G01*
X7607198Y7892694D03*
G01*
X7607198Y7392695D03*
G01*
X7607198Y6892696D03*
G01*
X7607198Y6392697D03*
G01*
X7607198Y5892698D03*
G01*
X7607198Y5392699D03*
G01*
X7607198Y4892700D03*
G01*
X7607198Y4392701D03*
G01*
X7607198Y3892702D03*
G01*
X7607198Y3392703D03*
G01*
X7607198Y2892679D03*
G01*
X7607198Y2392679D03*
G01*
X7607198Y1892680D03*
G01*
X7607198Y1392681D03*
G01*
X8107197Y8392693D03*
G01*
X8107197Y7892694D03*
G01*
X8107197Y7392695D03*
G01*
X8107197Y6892696D03*
G01*
X8107197Y6392697D03*
G01*
X8107197Y5892698D03*
G01*
X8107197Y5392699D03*
G01*
X8107197Y4892700D03*
G01*
X8107197Y4392701D03*
G01*
X8107197Y3892702D03*
G01*
X8107197Y3392703D03*
G01*
X8107197Y2892679D03*
G01*
X8107197Y2392679D03*
G01*
X8107197Y1892680D03*
G01*
X8607196Y7892694D03*
G01*
X8607196Y7392695D03*
G01*
X8607196Y6892696D03*
G01*
X8607196Y6392697D03*
G01*
X8607196Y5892698D03*
G01*
X8607196Y5392699D03*
G01*
X8607196Y4892700D03*
G01*
X8607196Y4392701D03*
G01*
X8607196Y3892702D03*
G01*
X8607196Y3392703D03*
G01*
X8607196Y2892679D03*
G01*
X8607196Y2392679D03*
G01*
X9107195Y7392695D03*
G01*
X9107195Y6892696D03*
G01*
X9107195Y6392697D03*
G01*
X9107195Y5892698D03*
G01*
X9107195Y5392699D03*
G01*
X9107195Y4892700D03*
G01*
X9107195Y4392701D03*
G01*
X9107195Y3892702D03*
G01*
X9107195Y3392703D03*
G01*
X9107195Y2892679D03*
G01*
X9607219Y6892696D03*
G01*
X9607219Y6392697D03*
G01*
X9607219Y5892698D03*
G01*
X9607219Y5392699D03*
G01*
X9607219Y4892700D03*
G01*
X9607219Y4392701D03*
G01*
X9607219Y3892702D03*
G01*
X9607219Y3392703D03*
G01*
X107213Y6392697D03*
G01*
X107213Y5892698D03*
G01*
X107213Y5392699D03*
G01*
X107213Y4892700D03*
G01*
X107213Y4392701D03*
G01*
X107213Y3892702D03*
G01*
X107213Y3392703D03*
G01*
X607212Y6892696D03*
G01*
X607212Y6392697D03*
G01*
X607212Y5892698D03*
G01*
X607212Y5392699D03*
G01*
X607212Y4892700D03*
G01*
X607212Y4392701D03*
G01*
X607212Y3892702D03*
G01*
X607212Y3392703D03*
G01*
X607212Y2892679D03*
G01*
X1107211Y7392695D03*
G01*
X1107211Y6892696D03*
G01*
X1107211Y6392697D03*
G01*
X1107211Y5892698D03*
G01*
X1107211Y5392699D03*
G01*
X1107211Y4892700D03*
G01*
X1107211Y4392701D03*
G01*
X1107211Y3892702D03*
G01*
X1107211Y3392703D03*
G01*
X1107211Y2892679D03*
G01*
X1107211Y2392679D03*
G01*
X1607210Y7892694D03*
G01*
X1607210Y7392695D03*
G01*
X1607210Y6892696D03*
G01*
X1607210Y6392697D03*
G01*
X1607210Y5892698D03*
G01*
X1607210Y5392699D03*
G01*
X1607210Y4892700D03*
G01*
X1607210Y4392701D03*
G01*
X1607210Y3892702D03*
G01*
X1607210Y3392703D03*
G01*
X1607210Y2892679D03*
G01*
X1607210Y2392679D03*
G01*
X1607210Y1892680D03*
G01*
X2107209Y8392693D03*
G01*
X2107209Y7892694D03*
G01*
X2107209Y7392695D03*
G01*
X2107209Y6892696D03*
G01*
X2107209Y6392697D03*
G01*
X2107209Y5892698D03*
G01*
X2107209Y5392699D03*
G01*
X2107209Y4892700D03*
G01*
X2107209Y4392701D03*
G01*
X2107209Y3892702D03*
G01*
X2107209Y3392703D03*
G01*
X2107209Y2892679D03*
G01*
X2107209Y2392679D03*
G01*
X2107209Y1892680D03*
G01*
X2107209Y1392681D03*
G01*
X2607208Y8892692D03*
G01*
X2607208Y8392693D03*
G01*
X2607208Y7892694D03*
G01*
X2607208Y7392695D03*
G01*
X2607208Y6892696D03*
G01*
X2607208Y6392697D03*
G01*
X2607208Y5892698D03*
G01*
X2607208Y5392699D03*
G01*
X2607208Y4892700D03*
G01*
X2607208Y4392701D03*
G01*
X2607208Y3892702D03*
G01*
X2607208Y3392703D03*
G01*
X2607208Y2892679D03*
G01*
X2607208Y2392679D03*
G01*
X2607208Y1892680D03*
G01*
X2607208Y1392681D03*
G01*
X2607208Y892682D03*
G01*
X3107207Y9392691D03*
G01*
X3107207Y8892692D03*
G01*
X3107207Y8392693D03*
G01*
X3107207Y7892694D03*
G01*
X3107207Y7392695D03*
G01*
X3107207Y6892696D03*
G01*
X3107207Y6392697D03*
G01*
X3107207Y5892698D03*
G01*
X3107207Y5392699D03*
G01*
X3107207Y4892700D03*
G01*
X3107207Y4392701D03*
G01*
X3107207Y3892702D03*
G01*
X3107207Y3392703D03*
G01*
X3107207Y2892679D03*
G01*
X3107207Y2392679D03*
G01*
X3107207Y1892680D03*
G01*
X3107207Y1392681D03*
G01*
X3107207Y892682D03*
G01*
X3107207Y392684D03*
G01*
X3607206Y9892690D03*
G01*
X3607206Y9392691D03*
G01*
X3607206Y8892692D03*
G01*
X3607206Y8392693D03*
G01*
X3607206Y7892694D03*
G01*
X3607206Y7392695D03*
G01*
X3607206Y6892696D03*
G01*
X3607206Y6392697D03*
G01*
X3607206Y5892698D03*
G01*
X3607206Y5392699D03*
G01*
X3607206Y4892700D03*
G01*
X3607206Y4392701D03*
G01*
X3607206Y3892702D03*
G01*
X3607206Y3392703D03*
G01*
X3607206Y2892679D03*
G01*
X3607206Y2392679D03*
G01*
X3607206Y1892680D03*
G01*
X3607206Y1392681D03*
G01*
X3607206Y892682D03*
G01*
X3607206Y392684D03*
G01*
X4107205Y9892690D03*
G01*
X4107205Y9392691D03*
G01*
X4107205Y8892692D03*
G01*
X4107205Y8392693D03*
G01*
X4107205Y7892694D03*
G01*
X4107205Y7392695D03*
G01*
X4107205Y6892696D03*
G01*
X4107205Y6392697D03*
G01*
X4107205Y5892698D03*
G01*
X4107205Y5392699D03*
G01*
X4107205Y4892700D03*
G01*
X4107205Y4392701D03*
G01*
X4107205Y3892702D03*
G01*
X4107205Y3392703D03*
G01*
X4107205Y2892679D03*
G01*
X4107205Y2392679D03*
G01*
X4107205Y1892680D03*
G01*
X4107205Y1392681D03*
G01*
X4107205Y892682D03*
G01*
X4107205Y392684D03*
G01*
X4607204Y9892690D03*
G01*
X4607204Y9392691D03*
G01*
X4607204Y8892692D03*
G01*
X4607204Y8392693D03*
G01*
X4607204Y7892694D03*
G01*
X4607204Y7392695D03*
G01*
X4607204Y6892696D03*
G01*
X4607204Y6392697D03*
G01*
X4607204Y5892698D03*
G01*
X4607204Y5392699D03*
G01*
X4607204Y4892700D03*
G01*
X4607204Y4392701D03*
G01*
X4607204Y3892702D03*
G01*
X4607204Y3392703D03*
G01*
X4607204Y2892679D03*
G01*
X4607204Y2392679D03*
G01*
X4607204Y1892680D03*
G01*
X4607204Y1392681D03*
G01*
X4607204Y892682D03*
G01*
X4607204Y392684D03*
G01*
X5107203Y9892690D03*
G01*
X5107203Y9392691D03*
G01*
X5107203Y8892692D03*
G01*
X5107203Y8392693D03*
G01*
X5107203Y7892694D03*
G01*
X5107203Y7392695D03*
G01*
X5107203Y6892696D03*
G01*
X5107203Y6392697D03*
G01*
X5107203Y5892698D03*
G01*
X5107203Y5392699D03*
G01*
X5107203Y4892700D03*
G01*
X5107203Y4392701D03*
G01*
X5107203Y3892702D03*
G01*
X5107203Y3392703D03*
G01*
X5107203Y2892679D03*
G01*
X5107203Y2392679D03*
G01*
X5107203Y1892680D03*
G01*
X5107203Y1392681D03*
G01*
X5107203Y892682D03*
G01*
X5107203Y392684D03*
G01*
X5607202Y9892690D03*
G01*
X5607202Y9392691D03*
G01*
X5607202Y8892692D03*
G01*
X5607202Y8392693D03*
G01*
X5607202Y7892694D03*
G01*
X5607202Y7392695D03*
G01*
X5607202Y6892696D03*
G01*
X5607202Y6392697D03*
G01*
X5607202Y5892698D03*
G01*
X5607202Y5392699D03*
G01*
X5607202Y4892700D03*
G01*
X5607202Y4392701D03*
G01*
X5607202Y3892702D03*
G01*
X5607202Y3392703D03*
G01*
X5607202Y2892679D03*
G01*
X5607202Y2392679D03*
G01*
X5607202Y1892680D03*
G01*
X5607202Y1392681D03*
G01*
X5607202Y892682D03*
G01*
X5607202Y392684D03*
G01*
X6107201Y9892690D03*
G01*
X6107201Y9392691D03*
G01*
X6107201Y8892692D03*
G01*
X6107201Y8392693D03*
G01*
X6107201Y7892694D03*
G01*
X6107201Y7392695D03*
G01*
X6107201Y6892696D03*
G01*
X6107201Y6392697D03*
G01*
X6107201Y5892698D03*
G01*
X6107201Y5392699D03*
G01*
X6107201Y4892700D03*
G01*
X6107201Y4392701D03*
G01*
X6107201Y3892702D03*
G01*
X6107201Y3392703D03*
G01*
X6107201Y2892679D03*
G01*
X6107201Y2392679D03*
G01*
X6107201Y1892680D03*
G01*
X6107201Y1392681D03*
G01*
X6107201Y892682D03*
G01*
X6107201Y392684D03*
G01*
X6607200Y9892690D03*
G01*
X6607200Y9392691D03*
G01*
X6607200Y8892692D03*
G01*
X6607200Y8392693D03*
G01*
X6607200Y7892694D03*
G01*
X6607200Y7392695D03*
G01*
X6607200Y6892696D03*
G01*
X6607200Y6392697D03*
G01*
X6607200Y5892698D03*
G01*
X6607200Y5392699D03*
G01*
X6607200Y4892700D03*
G01*
X6607200Y4392701D03*
G01*
X6607200Y3892702D03*
G01*
X6607200Y3392703D03*
G01*
X6607200Y2892679D03*
G01*
X6607200Y2392679D03*
G01*
X6607200Y1892680D03*
G01*
X6607200Y1392681D03*
G01*
X6607200Y892682D03*
G01*
X6607200Y392684D03*
G01*
X7107199Y9392691D03*
G01*
X7107199Y8892692D03*
G01*
X7107199Y8392693D03*
G01*
X7107199Y7892694D03*
G01*
X7107199Y7392695D03*
G01*
X7107199Y6892696D03*
G01*
X7107199Y6392697D03*
G01*
X7107199Y5892698D03*
G01*
X7107199Y5392699D03*
G01*
X7107199Y4892700D03*
G01*
X7107199Y4392701D03*
G01*
X7107199Y3892702D03*
G01*
X7107199Y3392703D03*
G01*
X7107199Y2892679D03*
G01*
X7107199Y2392679D03*
G01*
X7107199Y1892680D03*
G01*
X7107199Y1392681D03*
G01*
X7107199Y892682D03*
G01*
X7607198Y8892692D03*
G01*
X7607198Y8392693D03*
G01*
X7607198Y7892694D03*
G01*
X7607198Y7392695D03*
G01*
X7607198Y6892696D03*
G01*
X7607198Y6392697D03*
G01*
X7607198Y5892698D03*
G01*
X7607198Y5392699D03*
G01*
X7607198Y4892700D03*
G01*
X7607198Y4392701D03*
G01*
X7607198Y3892702D03*
G01*
X7607198Y3392703D03*
G01*
X7607198Y2892679D03*
G01*
X7607198Y2392679D03*
G01*
X7607198Y1892680D03*
G01*
X7607198Y1392681D03*
G01*
X8107197Y8392693D03*
G01*
X8107197Y7892694D03*
G01*
X8107197Y7392695D03*
G01*
X8107197Y6892696D03*
G01*
X8107197Y6392697D03*
G01*
X8107197Y5892698D03*
G01*
X8107197Y5392699D03*
G01*
X8107197Y4892700D03*
G01*
X8107197Y4392701D03*
G01*
X8107197Y3892702D03*
G01*
X8107197Y3392703D03*
G01*
X8107197Y2892679D03*
G01*
X8107197Y2392679D03*
G01*
X8107197Y1892680D03*
G01*
X8607196Y7892694D03*
G01*
X8607196Y7392695D03*
G01*
X8607196Y6892696D03*
G01*
X8607196Y6392697D03*
G01*
X8607196Y5892698D03*
G01*
X8607196Y5392699D03*
G01*
X8607196Y4892700D03*
G01*
X8607196Y4392701D03*
G01*
X8607196Y3892702D03*
G01*
X8607196Y3392703D03*
G01*
X8607196Y2892679D03*
G01*
X8607196Y2392679D03*
G01*
X9107195Y7392695D03*
G01*
X9107195Y6892696D03*
G01*
X9107195Y6392697D03*
G01*
X9107195Y5892698D03*
G01*
X9107195Y5392699D03*
G01*
X9107195Y4892700D03*
G01*
X9107195Y4392701D03*
G01*
X9107195Y3892702D03*
G01*
X9107195Y3392703D03*
G01*
X9107195Y2892679D03*
G01*
X9607219Y6892696D03*
G01*
X9607219Y6392697D03*
G01*
X9607219Y5892698D03*
G01*
X9607219Y5392699D03*
G01*
X9607219Y4892700D03*
G01*
X9607219Y4392701D03*
G01*
X9607219Y3892702D03*
G01*
X9607219Y3392703D03*
M02*
